<?xml version="1.0" standalone="no"?>
<!DOCTYPE svg PUBLIC "-//W3C//DTD SVG 20010904//EN"
 "http://www.w3.org/TR/2001/REC-SVG-20010904/DTD/svg10.dtd">
<svg version="1.0" xmlns="http://www.w3.org/2000/svg"
 width="3840.000000pt" height="2160.000000pt" viewBox="0 0 3840.000000 2160.000000"
 preserveAspectRatio="xMidYMid meet">

<g transform="translate(0.000000,2160.000000) scale(0.100000,-0.100000)"
fill="#000000" stroke="none">
<path d="M3985 16009 c-1369 -4 -1955 -9 -1990 -17 -108 -24 -279 -94 -375
-154 -114 -71 -274 -226 -344 -336 -96 -148 -146 -277 -176 -448 -20 -116 -20
-150 -20 -4241 0 -4508 -3 -4241 56 -4419 30 -93 92 -222 146 -304 64 -99 248
-275 348 -334 163 -96 295 -141 485 -164 79 -9 34070 -9 34160 0 278 30 505
138 701 333 203 202 311 437 334 730 7 88 10 1456 8 4245 l-3 4115 -28 108
c-104 405 -386 709 -773 836 -111 36 -135 40 -254 47 -133 7 -29909 10 -32275
3z m9160 -1679 c143 -45 325 -156 363 -222 16 -28 16 -28 -43 -88 -33 -33 -66
-60 -73 -60 -8 0 -37 21 -65 46 -61 55 -142 97 -216 113 -68 14 -228 15 -301
1 -175 -33 -382 -218 -442 -395 -39 -115 -47 -253 -23 -384 31 -164 101 -268
248 -369 90 -62 135 -85 222 -113 92 -30 256 -24 356 13 188 69 323 210 364
379 10 38 15 76 11 84 -5 13 -47 15 -301 15 l-295 0 0 110 0 110 58 1 c216 2
726 -2 732 -6 11 -7 1 -200 -16 -300 -35 -205 -152 -368 -345 -484 -216 -129
-541 -146 -776 -41 -169 76 -328 231 -416 407 -55 108 -71 193 -71 373 -1 144
2 174 22 240 61 197 214 388 395 494 166 98 436 131 612 76z m7340 1 c110 -29
213 -81 297 -152 235 -197 327 -403 315 -703 -8 -208 -55 -334 -182 -492 -65
-82 -185 -183 -265 -224 -198 -101 -490 -117 -693 -38 -126 48 -194 94 -297
198 -98 99 -145 166 -187 270 -45 112 -55 189 -50 365 5 169 19 230 77 345 92
184 293 358 484 420 133 43 358 48 501 11z m-5497 -98 l-3 -98 -360 0 -360 -1
0 -254 0 -255 335 -1 335 -2 0 -93 0 -94 -337 -3 -338 -2 0 -255 0 -255 365 0
365 0 0 -110 0 -110 -474 0 c-370 0 -475 3 -479 13 -7 19 -8 1563 -1 1592 l6
25 474 0 475 0 -3 -97z m1362 2 l0 -95 -32 -1 c-18 -1 -121 -2 -228 -3 l-195
-1 -5 -715 -5 -715 -110 0 -110 0 -3 710 -2 710 -38 5 c-20 3 -118 5 -217 4
-107 -1 -185 3 -192 8 -14 11 -19 169 -6 181 3 4 262 7 575 7 l568 0 0 -95z
m1008 -717 l-3 -813 -110 0 -110 0 -3 800 c-1 440 0 806 3 813 3 8 36 12 115
12 l110 0 -2 -812z m1352 717 c0 -69 -3 -95 -12 -97 -7 0 -110 -1 -228 -2
l-215 -1 -3 -720 -2 -720 -95 3 -95 3 0 715 0 714 -27 1 c-16 1 -117 2 -226 3
-164 1 -199 4 -207 16 -9 15 -12 158 -4 172 3 4 255 8 560 8 l554 0 0 -95z
m2942 83 c8 -7 33 -44 55 -83 22 -38 159 -261 303 -495 145 -234 295 -478 334
-542 39 -65 73 -118 76 -118 4 0 10 789 10 1228 0 21 3 22 110 22 l110 0 0
-813 c0 -448 -2 -816 -4 -818 -2 -2 -53 -3 -113 -1 l-110 3 -40 67 c-22 37
-183 292 -358 567 -175 275 -340 537 -368 583 -27 45 -53 82 -58 82 -5 0 -9
-285 -9 -649 l0 -650 -91 -3 c-50 -2 -93 0 -95 4 -3 5 -7 1497 -4 1611 0 15
12 17 118 17 80 0 123 -4 134 -12z m-17520 -68 c38 -12 192 -93 360 -189 161
-92 403 -229 538 -305 268 -152 342 -195 350 -205 3 -3 10 -7 15 -8 10 -1 139
-73 300 -165 151 -87 580 -331 625 -356 25 -13 59 -32 75 -42 17 -10 50 -29
75 -42 25 -14 203 -115 395 -225 193 -110 370 -211 395 -225 68 -38 300 -170
525 -298 110 -63 243 -138 295 -166 109 -60 144 -84 136 -92 -6 -5 2 -11 73
-50 24 -13 273 -155 555 -316 282 -162 535 -306 562 -321 249 -137 350 -221
403 -334 22 -48 26 -69 26 -151 0 -107 -15 -149 -82 -230 -70 -84 -141 -137
-301 -221 -53 -29 -115 -62 -137 -74 -22 -12 -74 -40 -115 -62 -41 -22 -158
-85 -260 -140 -102 -55 -225 -121 -275 -148 -49 -26 -94 -51 -100 -55 -5 -4
-73 -40 -150 -80 -77 -40 -151 -80 -164 -88 -22 -15 -25 -14 -38 4 -7 10 -264
270 -570 576 l-555 558 -27 -19 c-14 -11 -70 -64 -123 -118 -231 -235 -442
-438 -452 -435 -6 2 -8 0 -3 -4 9 -10 -23 -45 -35 -38 -4 3 -7 1 -6 -5 2 -6
-394 -408 -880 -894 -485 -486 -879 -886 -876 -890 4 -4 1 -7 -7 -7 -19 0
-162 -144 -153 -153 4 -4 1 -7 -7 -7 -20 0 -72 -54 -62 -64 5 -4 1 -6 -7 -4
-9 2 -14 -3 -12 -12 2 -8 0 -12 -4 -7 -10 10 -315 -294 -307 -306 3 -6 2 -7
-4 -4 -11 7 -67 -46 -58 -55 3 -3 -3 -11 -12 -19 -17 -13 -17 -13 -3 6 15 20
14 20 -8 1 -12 -11 -22 -26 -22 -34 0 -9 -3 -12 -7 -9 -9 9 -54 -33 -47 -44 3
-5 0 -9 -7 -9 -15 0 -105 -91 -101 -103 1 -4 -4 -6 -10 -5 -7 2 -12 -3 -10 -9
1 -7 -4 -13 -11 -13 -17 0 -47 -36 -39 -46 4 -4 2 -4 -4 -1 -13 7 -56 -38 -46
-48 4 -4 -2 -3 -14 3 -28 15 -38 28 -74 101 -64 128 -60 -87 -60 3291 0 3372
-4 3156 58 3280 19 38 32 55 45 54 10 -1 16 1 13 4 -4 3 6 14 21 24 129 88
242 101 405 48z m10003 -2685 c345 -56 651 -205 898 -435 l38 -35 -171 -170
c-94 -94 -175 -171 -180 -173 -5 -2 -35 18 -67 44 -163 133 -332 215 -558 270
-97 24 -129 27 -275 27 -173 0 -268 -15 -415 -65 -311 -106 -577 -344 -721
-643 -100 -206 -135 -370 -133 -607 1 -161 13 -244 61 -403 49 -166 158 -354
288 -498 110 -121 321 -256 489 -311 283 -94 605 -95 878 -2 266 90 496 281
607 505 54 108 125 353 112 387 -5 12 -91 14 -586 14 l-580 0 0 245 0 245 844
0 843 0 12 -57 c18 -92 14 -370 -9 -515 -62 -400 -209 -678 -515 -971 -178
-172 -446 -311 -711 -371 -225 -51 -600 -51 -819 -1 -766 175 -1359 833 -1427
1583 -12 140 -4 361 18 469 9 43 18 89 21 103 26 130 142 400 233 540 292 449
787 764 1315 834 136 19 370 14 510 -9z m9684 -1780 l0 -1695 -117 -1 c-64 -1
-180 -2 -257 -3 l-140 -1 -3 1698 -2 1697 259 0 259 0 1 -1695z m4946 1667
c233 -55 398 -142 549 -290 204 -199 298 -412 309 -703 19 -454 -234 -837
-668 -1011 -191 -77 -269 -86 -754 -87 -212 -1 -386 -3 -388 -5 -2 -2 -3 -287
-3 -635 l0 -631 -117 -1 c-65 -1 -181 -2 -258 -3 l-140 -1 -3 1685 c-1 927 0
1691 3 1698 4 11 133 12 692 9 659 -3 692 -4 778 -25z m1653 -1669 l2 -1693
-122 -1 c-68 0 -185 -3 -260 -5 l-138 -4 0 43 c0 41 0 3155 0 3290 l0 67 258
-2 257 -3 3 -1692z m-8369 532 c140 -34 266 -98 364 -184 32 -28 63 -48 69
-45 7 5 8 34 4 85 -6 76 -6 79 16 84 13 3 123 4 246 3 l222 -3 0 -1105 c0
-612 -4 -1141 -10 -1185 -65 -562 -406 -909 -942 -957 -418 -37 -758 103
-1007 417 -63 79 -154 232 -148 248 3 7 83 46 178 87 96 40 183 80 194 87 25
17 65 17 65 0 0 -34 70 -139 139 -208 138 -138 312 -196 513 -169 224 30 368
128 458 313 45 94 66 199 76 389 9 147 0 156 -79 80 -28 -28 -70 -64 -92 -80
-59 -42 -188 -101 -248 -113 -29 -6 -70 -15 -92 -20 -163 -35 -469 27 -653
133 -287 164 -479 431 -552 765 -28 131 -28 351 0 472 59 248 156 424 328 594
103 103 183 162 302 221 166 84 303 116 475 111 61 -2 139 -11 174 -20z m9861
0 c382 -76 660 -309 782 -655 10 -30 28 -97 39 -149 18 -87 19 -138 19 -757
l0 -664 -117 -1 c-65 -1 -174 -2 -243 -3 l-125 -1 -3 133 c-2 96 -6 132 -15
132 -7 0 -57 -44 -112 -98 -120 -117 -218 -171 -367 -202 -452 -96 -908 165
-1008 575 -100 409 166 769 659 893 95 23 125 26 281 26 197 0 277 -14 436
-79 48 -19 90 -32 93 -30 10 10 -18 113 -44 168 -83 168 -328 293 -536 273
-183 -17 -294 -70 -378 -181 -34 -45 -48 -56 -65 -52 -32 8 -420 168 -431 178
-13 13 31 99 91 178 125 167 349 286 614 327 103 16 323 10 430 -11z m-14810
-29 c220 -48 402 -142 555 -287 230 -219 345 -501 345 -851 0 -260 -60 -466
-196 -675 -50 -76 -224 -250 -297 -296 -91 -58 -205 -112 -296 -141 -142 -45
-220 -55 -406 -51 -204 3 -308 26 -470 103 -129 62 -207 115 -302 205 -236
224 -363 525 -363 857 0 579 380 1037 950 1145 99 19 376 13 480 -9z m2466 9
c132 -23 196 -41 291 -82 362 -155 612 -494 662 -898 11 -92 7 -313 -8 -399
-38 -218 -158 -445 -321 -605 -157 -155 -323 -246 -549 -303 -98 -24 -373 -34
-472 -18 -432 73 -785 377 -917 790 -42 133 -57 226 -57 365 0 206 41 380 131
555 157 304 449 521 794 589 120 24 324 27 446 6z m5814 -5 c190 -39 338 -119
478 -259 127 -126 208 -250 290 -441 62 -148 62 -147 16 -166 -125 -51 -461
-192 -529 -222 -44 -19 -100 -43 -125 -52 -25 -10 -106 -44 -180 -75 -74 -31
-160 -67 -190 -80 -30 -13 -100 -42 -155 -65 -55 -23 -147 -62 -205 -86 -120
-49 -124 -57 -72 -135 82 -121 171 -193 293 -236 67 -24 88 -27 219 -27 125 0
154 4 210 23 124 43 205 104 333 249 36 40 57 52 57 33 0 -5 16 -19 37 -31 76
-45 313 -223 313 -236 0 -23 -116 -160 -188 -221 -129 -111 -233 -172 -382
-223 -144 -50 -222 -60 -410 -56 -175 4 -240 16 -385 71 -279 105 -518 345
-634 636 -62 158 -76 243 -76 464 0 210 10 282 64 438 103 299 356 555 649
658 169 60 395 75 572 39z m7882 -42 c9 -7 39 -69 66 -138 28 -69 71 -177 97
-240 26 -63 100 -245 165 -405 290 -712 273 -675 291 -675 5 0 12 8 16 18 8
23 68 181 98 257 13 33 48 123 78 200 30 77 82 210 115 295 33 85 83 214 111
285 28 72 75 193 105 270 l54 140 268 0 c233 0 269 -2 267 -15 -1 -8 -36 -94
-78 -190 -86 -196 -94 -216 -338 -780 -219 -507 -494 -1144 -644 -1490 -202
-466 -290 -674 -297 -697 -4 -13 -10 -24 -14 -25 -4 0 -121 -2 -259 -3 -195
-1 -253 1 -253 11 0 7 18 50 39 96 22 45 81 175 132 288 50 113 141 313 201
445 61 132 116 254 123 270 12 26 11 36 -5 70 -10 22 -55 126 -100 230 -45
105 -113 261 -151 348 -38 87 -69 160 -69 162 0 3 -14 35 -31 72 -17 38 -59
133 -94 213 -198 460 -320 739 -369 850 -31 68 -54 130 -52 137 7 18 505 19
528 1z"/>
<path d="M20183 14159 c-77 -10 -182 -44 -233 -77 -25 -16 -71 -55 -104 -88
-195 -195 -257 -446 -176 -708 43 -139 167 -272 325 -351 110 -55 179 -69 310
-62 164 10 262 53 367 162 176 184 237 383 193 629 -20 116 -64 197 -154 287
-153 153 -349 230 -528 208z"/>
<path d="M3845 14010 c55 -55 102 -100 104 -100 9 0 -184 197 -194 199 -5 0
35 -44 90 -99z"/>
<path d="M4010 13845 c13 -14 26 -25 28 -25 3 0 -5 11 -18 25 -13 14 -26 25
-28 25 -3 0 5 -11 18 -25z"/>
<path d="M4260 13600 c0 -5 5 -10 11 -10 5 0 7 5 4 10 -3 6 -8 10 -11 10 -2 0
-4 -4 -4 -10z"/>
<path d="M4290 13566 c0 -2 7 -7 16 -10 8 -3 12 -2 9 4 -6 10 -25 14 -25 6z"/>
<path d="M4680 13186 c0 -2 8 -10 18 -17 15 -13 16 -12 3 4 -13 16 -21 21 -21
13z"/>
<path d="M4720 13146 c0 -2 8 -10 18 -17 15 -13 16 -12 3 4 -13 16 -21 21 -21
13z"/>
<path d="M4800 13066 c0 -2 8 -10 18 -17 15 -13 16 -12 3 4 -13 16 -21 21 -21
13z"/>
<path d="M4840 13026 c0 -2 8 -10 18 -17 15 -13 16 -12 3 4 -13 16 -21 21 -21
13z"/>
<path d="M4910 12955 c19 -19 36 -35 39 -35 3 0 -10 16 -29 35 -19 19 -36 35
-39 35 -3 0 10 -16 29 -35z"/>
<path d="M4960 12906 c0 -2 8 -10 18 -17 15 -13 16 -12 3 4 -13 16 -21 21 -21
13z"/>
<path d="M5000 12866 c0 -2 8 -10 18 -17 15 -13 16 -12 3 4 -13 16 -21 21 -21
13z"/>
<path d="M5105 12760 c21 -22 41 -40 44 -40 3 0 -13 18 -34 40 -21 22 -41 40
-44 40 -3 0 13 -18 34 -40z"/>
<path d="M5160 12706 c0 -2 8 -10 18 -17 15 -13 16 -12 3 4 -13 16 -21 21 -21
13z"/>
<path d="M5335 12532 c55 -56 101 -102 103 -102 8 0 -42 53 -118 125 -84 79
-84 79 15 -23z"/>
<path d="M5495 12370 c27 -27 51 -50 54 -50 3 0 -17 23 -44 50 -27 28 -51 50
-54 50 -3 0 17 -22 44 -50z"/>
<path d="M5560 12307 c0 -2 15 -16 33 -33 l32 -29 -29 33 c-28 30 -36 37 -36
29z"/>
<path d="M5630 12237 c0 -2 15 -16 33 -33 l32 -29 -29 33 c-28 30 -36 37 -36
29z"/>
<path d="M5735 12130 c10 -11 20 -20 23 -20 3 0 -3 9 -13 20 -10 11 -20 20
-23 20 -3 0 3 -9 13 -20z"/>
<path d="M5802 12064 c10 -10 20 -16 22 -13 3 3 -5 11 -17 18 -21 13 -21 12
-5 -5z"/>
<path d="M6090 11786 c0 -2 8 -10 18 -17 15 -13 16 -12 3 4 -13 16 -21 21 -21
13z"/>
<path d="M6160 11711 c0 -5 7 -12 16 -15 14 -5 15 -4 4 9 -14 17 -20 19 -20 6z"/>
<path d="M6210 11666 c0 -2 8 -10 18 -17 15 -13 16 -12 3 4 -13 16 -21 21 -21
13z"/>
<path d="M6310 11565 c35 -36 67 -65 69 -65 3 0 -24 29 -59 65 -35 36 -67 65
-69 65 -3 0 24 -29 59 -65z"/>
<path d="M6405 11470 c10 -11 20 -20 23 -20 3 0 -3 9 -13 20 -10 11 -20 20
-23 20 -3 0 3 -9 13 -20z"/>
<path d="M6535 11340 c55 -55 102 -100 105 -100 2 0 -40 45 -95 100 -55 55
-102 100 -105 100 -2 0 40 -45 95 -100z"/>
<path d="M6650 11226 c0 -2 8 -10 18 -17 15 -13 16 -12 3 4 -13 16 -21 21 -21
13z"/>
<path d="M6720 11156 c0 -2 8 -10 18 -17 15 -13 16 -12 3 4 -13 16 -21 21 -21
13z"/>
<path d="M6980 10905 c19 -19 36 -35 39 -35 3 0 -10 16 -29 35 -19 19 -36 35
-39 35 -3 0 10 -16 29 -35z"/>
<path d="M27810 10435 l0 -585 393 0 c435 0 477 5 594 62 101 49 207 158 260
268 47 96 83 217 83 276 0 60 -37 181 -77 254 -50 89 -161 197 -245 238 -136
67 -168 70 -610 71 l-398 1 0 -585z"/>
<path d="M21755 9861 c-249 -54 -455 -272 -501 -529 -16 -92 -18 -213 -3 -302
51 -322 319 -559 632 -561 276 -2 499 172 592 461 26 77 28 99 29 240 0 148
-1 159 -32 250 -42 126 -92 208 -177 289 -85 80 -165 124 -276 151 -100 24
-157 24 -264 1z"/>
<path d="M31635 9109 c-155 -14 -265 -58 -346 -139 -42 -42 -59 -68 -73 -114
-94 -302 311 -499 658 -319 87 46 195 151 249 243 38 66 81 189 75 217 -4 18
-117 65 -226 93 -83 21 -224 29 -337 19z"/>
<path d="M16705 9861 c-130 -28 -206 -71 -310 -175 -94 -95 -141 -171 -180
-296 -25 -77 -30 -311 -9 -400 86 -361 427 -585 769 -506 225 53 394 216 477
460 29 84 31 101 31 226 0 199 -39 325 -147 465 -86 113 -213 192 -362 225
-108 24 -164 24 -269 1z"/>
<path d="M19228 9860 c-374 -79 -600 -495 -488 -899 36 -129 122 -269 211
-342 278 -229 679 -191 898 86 113 142 161 283 161 469 -1 294 -134 522 -375
643 -53 27 -211 63 -271 62 -27 0 -88 -9 -136 -19z"/>
<path d="M25081 9864 c-247 -54 -446 -270 -490 -535 -10 -57 -16 -109 -14
-116 3 -8 26 -2 71 17 785 328 947 399 950 414 2 9 -22 43 -54 76 -69 72 -163
123 -272 145 -86 18 -106 18 -191 -1z"/>
<path d="M874 15017 c1 -19 5 -34 11 -34 6 0 11 15 12 34 1 21 -3 33 -11 33
-8 0 -12 -12 -12 -33z"/>
<path d="M879 6618 c0 -2 -2 -20 -4 -40 -2 -31 0 -38 14 -38 10 0 18 7 18 15
0 8 -4 15 -8 15 -12 0 -17 39 -5 44 7 3 7 5 -1 5 -7 1 -13 0 -14 -1z"/>
</g>
</svg>
